# xmcd CD database file
#
# Track frame offsets:
#	150
#	10676
#	22244
#	35395
#	49711
#	61082
#	73287
#	86957
#	97443
#	108943
#	117945
#	129366
#	142172
#	152492
#	164575
#	177827
#	188158
#
# Disc length: 2698 seconds
#
# Revision: 0
# Processed by: cddbd v1.5.2PL0 Copyright (c) Steve Scherf et al.
# Submitted via: CDex 1.70beta2
#
DISCID=f10a8811
DTITLE=Ray Charles - The Solid Gold Collection CD2
DYEAR=2005
DGENRE=Blues
TTITLE0=Hey Now
TTITLE1=C.C. Rider
TTITLE2=Baby, Won't You Please Come Home
TTITLE3=Kissa Me Baby
TTITLE4=Confession Blues
TTITLE5=I've Had My Fun (Goin' Down Slow)
TTITLE6=Baby Let Me Hold Your Hand
TTITLE7=I Wonder Who's Kissing Her Now
TTITLE8=Let's Have A Ball
TTITLE9=All To Myself
TTITLE10=Back Home
TTITLE11=Can Anymore Ask For More
TTITLE12=Ain't That Fine
TTITLE13=I'm Glad For Your Sake
TTITLE14=Alone In The City
TTITLE15=Sittin' On Top Of The World
TTITLE16=Someday (Blues Is My Middle Name)
EXTD=YEAR: 2005
EXTT0=
EXTT1=
EXTT2=
EXTT3=
EXTT4=
EXTT5=
EXTT6=
EXTT7=
EXTT8=
EXTT9=
EXTT10=
EXTT11=
EXTT12=
EXTT13=
EXTT14=
EXTT15=
EXTT16=
PLAYORDER=
